<?xml version="1.0" encoding="iso-8859-1"?>
<!-- Generator: Adobe Illustrator 19.0.0, SVG Export Plug-In . SVG Version: 6.00 Build 0)  -->
<svg version="1.1" id="Capa_1" xmlns="http://www.w3.org/2000/svg" xmlns:xlink="http://www.w3.org/1999/xlink" x="0px" y="0px"
	 viewBox="0 0 511.998 511.998" style="enable-background:new 0 0 511.998 511.998;" xml:space="preserve">
<path style="fill:#A28577;" d="M56.832,424.549c59.194-206.96,160.079-271.114,244.411-271.114
	c64.417,0,128.834,63.148,178.467,131.896s14.784,112.044-19.009,112.044c-21.885,0-37.735-33.818-46.464-41.185
	c-22.282-18.801-70.598-7.195-110.438-39.472c-4.906-3.975-12.257-2.19-14.759,3.607c-10.11,23.424-17.466,60.204-13.992,90.032
	c0.879,7.544-4.931,14.193-12.526,14.193H56.832V424.549z"/>
<path style="fill:#495059;" d="M302.701,129.49c-49.219,1.178-106.154,1.4-152.658,53.884
	c-45.351,51.183-88.074,79.993-112.687,86.118c-4.064,1.012-5.385,6.081-2.333,8.948c10.607,9.967,26.054,15.331,41.068,10.551
	c-2.46,21.564-34.584,97.267-67.424,129.027c-2.459,2.379-0.785,6.53,2.637,6.53h85.089c0,0,3.906-69.707,23.471-99.288
	c1.504-2.274,4.979-1.878,5.96,0.666c2.942,7.629,5.966,13.197,8.589,17.098c1.872,2.783,6.19,1.687,6.468-1.655
	c2.162-25.914,9.375-89.22,38.367-114.656c1.874-1.644,4.809-0.749,5.522,1.64c1.421,4.764,3.884,9.109,6.242,12.468
	c1.903,2.711,6.021,2.194,7.325-0.85c9.957-23.211,58.394-68.747,96.64-70.459c20.267-0.908,38.011,0.384,54.276,4.216
	c7.894,1.86,14.866,6.49,19.594,13.079c5.613,7.822,11.535,17.964,14,26.016c1.259,4.115,6.364,5.454,9.51,2.519
	c5.129-4.783,7.181-10.022,7.181-18.869C394.055,163.309,354.662,128.246,302.701,129.49z"/>
<path style="fill:#A28577;" d="M295.525,199.429L295.525,199.429c-12.256-1.072-22.157-10.449-23.895-22.629l0,0
	c-2.546-17.853,1.753-36.007,12.034-50.822l24.039-34.641c3.417-4.924,10.591-5.222,14.405-0.597l0,0
	c10.685,12.957,14.758,30.137,11.027,46.512l-9.497,41.69C320.699,191.835,308.697,200.582,295.525,199.429z"/>
<ellipse style="fill:#F2937E;" cx="363.159" cy="286.677" rx="28.669" ry="22.831"/>
<path style="fill:#FFF0C0;" d="M460.702,397.375c31.609,0,64.135-37.884,27.589-99.042c-22.922,4.011-35.81,22.278-39.222,36.74
	c-3.556,15.07-17.111,24.647-27.68,29.683C430.588,377.341,443.854,397.375,460.702,397.375z"/>
<path style="opacity:0.15;enable-background:new    ;" d="M333.134,137.252c2.73-11.984,1.264-24.393-3.899-35.268
	c-21.826,18.537-48.035,85.184-17.279,93.439c5.742-3.63,10.072-9.426,11.679-16.481L333.134,137.252z"/>
<ellipse transform="matrix(-0.3554 -0.9347 0.9347 -0.3554 316.0125 920.4699)" style="opacity:0.1;enable-background:new    ;" cx="475.393" cy="351.271" rx="14.23" ry="11.904"/>
<path style="opacity:0.1;enable-background:new    ;" d="M460.702,397.375c11.733,0,23.59-5.225,31.997-14.917
	c-31.974,6.343-63.378-56.768-96.248-62.408c-26.193-4.495-51.164-33.692-74.323-31.059c-19.425,2.209-34.35,14.834-36.234,39.316
	l0,0c1.011-2.796,2.062-5.471,3.147-7.983c2.502-5.797,9.853-7.581,14.759-3.607c39.841,32.276,88.157,20.671,110.438,39.472
	C422.967,363.556,438.816,397.375,460.702,397.375z"/>
<path d="M379.865,271.402c4.142,0,7.499-3.357,7.499-7.499v-10.124c0-4.143-3.358-7.499-7.499-7.499
	c-4.143,0-7.499,3.357-7.499,7.499v10.124C372.366,268.045,375.723,271.402,379.865,271.402z M485.791,280.939
	c-26.41-36.58-53.105-66.316-79.383-88.473c-5.969-27.963-31.703-53.61-64.509-64.602c0.611-15.064-4.313-30.139-14.006-41.896
	c-3.325-4.032-8.233-6.229-13.447-6.004c-5.222,0.217-9.925,2.804-12.905,7.096l-24.039,34.642
	c-0.245,0.353-0.469,0.717-0.708,1.073c-45.538,2.146-92.808,10.982-132.364,55.624c-18.993,21.434-39.035,40.491-57.959,55.113
	c-3.278,2.532-3.883,7.241-1.35,10.519c1.478,1.913,3.696,2.915,5.939,2.915c1.602,0,3.216-0.511,4.58-1.565
	c19.937-15.403,40.13-34.592,60.016-57.035c34.839-39.318,75.79-47.661,113.063-50.106c-3.961,10.222-5.754,21.179-5.218,32.233
	c-28.791,13.452-57.927,41.02-69.339,61.122c-0.847-1.644-1.635-3.469-2.208-5.388c-1.074-3.599-3.867-6.367-7.472-7.405
	c-3.579-1.03-7.383-0.183-10.181,2.273c-24.748,21.712-35.247,67.649-39.625,106.66c-0.638-1.45-1.259-2.955-1.856-4.506
	c-1.47-3.814-4.912-6.456-8.983-6.898c-4.058-0.447-7.979,1.396-10.228,4.793c-16.866,25.501-22.603,77.014-24.189,95.927H19.951
	c30.855-34.731,60.968-104.218,63.59-127.211c0.288-2.527-0.725-5.028-2.689-6.643c-1.965-1.614-4.614-2.124-7.036-1.352
	c-11.644,3.703-22.867-0.428-30.539-6.239c6.847-2.158,14.513-5.624,22.853-10.335c3.606-2.038,4.878-6.612,2.841-10.219
	c-2.037-3.606-6.612-4.878-10.219-2.841c-8.747,4.942-16.772,8.4-23.205,10.002c-4.546,1.13-8.102,4.641-9.281,9.16
	c-1.181,4.521,0.207,9.322,3.622,12.531c10.332,9.709,23.58,14.736,36.514,14.29c-8.009,27.827-35.163,87.563-62.947,114.432
	c-3.329,3.221-4.358,8.073-2.623,12.363c1.734,4.287,5.846,7.057,10.474,7.057h205.707c4.143,0,7.499-3.357,7.499-7.499
	s-3.357-7.499-7.499-7.499H104.49c1.496-16.902,6.109-56.889,17.664-80.621c1.895,4.015,3.914,7.621,6.037,10.779
	c2.661,3.954,7.356,5.739,11.96,4.538c4.591-1.194,7.811-5.024,8.204-9.754c4.184-50.133,15.318-87.131,31.57-105.384
	c1.608,3.455,3.452,6.387,4.95,8.521c2.425,3.452,6.54,5.329,10.734,4.89c4.247-0.441,7.933-3.159,9.62-7.092
	c9.013-21.012,39.804-45.749,61.152-57.063c2.619,6.438,7.166,11.982,13.138,15.808c1.253,0.803,2.654,1.186,4.039,1.186
	c2.471,0,4.891-1.221,6.322-3.455c2.234-3.488,1.218-8.126-2.27-10.36c-4.658-2.983-7.775-7.831-8.556-13.302
	c-2.073-14.526,0.891-29.148,8.333-41.665c0.023-0.036,0.043-0.073,0.065-0.11c0.751-1.257,1.531-2.501,2.373-3.713l24.039-34.64
	c0.361-0.521,0.854-0.648,1.203-0.662c0.354-0.01,0.85,0.071,1.254,0.56c9.14,11.085,12.692,26.066,9.501,40.075l-9.497,41.69
	c-0.92,4.039,1.608,8.058,5.646,8.978c4.036,0.917,8.058-1.608,8.978-5.646l0.554-2.432c5.568,0.693,10.86,1.633,16.031,2.851
	c6.16,1.452,11.565,5.058,15.221,10.152c6.052,8.431,11.002,17.566,12.922,23.838c1.351,4.412,4.813,7.756,9.258,8.946
	c1.15,0.309,2.314,0.459,3.468,0.459c3.323,0,6.555-1.251,9.071-3.598c3.236-3.019,5.569-6.283,7.124-10.062
	c22.814,20.538,45.989,47.038,69.033,78.956c22.155,30.689,28.916,59.918,18.547,80.193c-6.298,12.314-18.358,19.963-31.475,19.963
	c-11.868,0-23.101-15.521-31.304-26.854c-3.999-5.525-7.156-9.889-10.325-12.562c-11.246-9.488-27.407-12.184-44.517-15.038
	c-21.106-3.521-45.029-7.51-66.037-24.529c-4.185-3.391-9.585-4.599-14.812-3.311c-5.216,1.282-9.427,4.846-11.554,9.772
	c-9.991,23.146-18.368,61.148-14.556,93.872c0.24,2.063-0.704,3.472-1.288,4.127c-0.565,0.635-1.808,1.699-3.79,1.699h-10.372
	c-4.143,0-7.499,3.357-7.499,7.499s3.357,7.499,7.499,7.499h10.372c5.724,0,11.188-2.451,14.993-6.724
	c3.837-4.311,5.653-10.082,4.982-15.837c-3.472-29.804,4.528-65.571,13.429-86.191c0.326-0.755,0.923-1.043,1.366-1.152
	c0.369-0.09,1.095-0.159,1.787,0.4c24.081,19.51,51.211,24.035,73.011,27.671c15.675,2.614,29.212,4.872,37.311,11.707
	c1.768,1.49,4.858,5.762,7.847,9.892c10.098,13.952,23.927,33.06,43.455,33.06c18.776,0,35.953-10.779,44.827-28.133
	C513.185,361.776,520.797,329.428,485.791,280.939z M389.086,207.881c-2.756-7.458-7.898-16.739-14.146-25.445
	c-5.769-8.039-14.279-13.725-23.968-16.007c-5.232-1.233-10.564-2.203-16.124-2.942l4.687-20.571
	c12.864,4.654,24.421,11.867,33.752,21.144c10.076,10.018,16.716,21.724,18.748,33.031
	C391.965,202.536,390.944,205.509,389.086,207.881z"/>
<g>
</g>
<g>
</g>
<g>
</g>
<g>
</g>
<g>
</g>
<g>
</g>
<g>
</g>
<g>
</g>
<g>
</g>
<g>
</g>
<g>
</g>
<g>
</g>
<g>
</g>
<g>
</g>
<g>
</g>
</svg>
