<?xml version="1.0"?>
<svg xmlns="http://www.w3.org/2000/svg" viewBox="-82 0 512 512" width="512px" height="512px"><g><path d="m292.234375 0h-237.0625c-30.421875 0-55.171875 24.746094-55.171875 55.164062v401.667969c0 30.421875 24.75 55.167969 55.171875 55.167969h237.0625c30.417969 0 55.164063-24.746094 55.164063-55.167969v-401.667969c0-30.417968-24.746094-55.164062-55.164063-55.164062zm-107.933594 467.441406c-2.789062 2.792969-6.660156 4.390625-10.601562 4.390625-3.945313 0-7.816407-1.597656-10.605469-4.390625-2.792969-2.796875-4.394531-6.667968-4.394531-10.609375 0-3.949219 1.601562-7.816406 4.394531-10.609375 2.789062-2.789062 6.660156-4.390625 10.605469-4.390625 3.953125 0 7.8125 1.601563 10.601562 4.390625 2.800781 2.792969 4.398438 6.660156 4.398438 10.609375.003906 3.941407-1.597657 7.8125-4.398438 10.609375zm133.097657-65.777344h-287.398438v-346.5c0-13.875 11.289062-25.164062 25.171875-25.164062h237.0625c13.875 0 25.164063 11.289062 25.164063 25.164062zm0 0" data-original="#000000" class="active-path" data-old_color="#000000" fill="#16736E"/><path d="m173.699219 187.492188c-45.460938 0-82.445313 36.984374-82.445313 82.445312 0 8.035156 2.320313 15.832031 6.71875 22.550781 7.652344 11.695313 20.554688 18.679688 34.511719 18.679688 10.136719 0 17.964844-2.320313 24.871094-4.367188 5.664062-1.679687 10.558593-3.128906 16.34375-3.128906 5.789062 0 10.683593 1.449219 16.347656 3.128906 6.90625 2.046875 14.730469 4.367188 24.871094 4.367188 13.957031 0 26.859375-6.984375 34.515625-18.683594 4.394531-6.71875 6.714844-14.511719 6.714844-22.546875-.003907-45.460938-36.988282-82.445312-82.449219-82.445312zm0 0" data-original="#000000" class="active-path" data-old_color="#000000" fill="#16736E"/><path d="m106.753906 173.703125c3.949219 0 7.808594-1.601563 10.609375-4.390625 2.789063-2.789062 4.390625-6.660156 4.390625-10.609375 0-3.9375-1.601562-7.808594-4.390625-10.601563-2.789062-2.789062-6.660156-4.390624-10.609375-4.390624-3.949218 0-7.8125 1.601562-10.601562 4.390624-2.800782 2.792969-4.398438 6.660157-4.398438 10.601563 0 3.949219 1.597656 7.820313 4.398438 10.609375 2.789062 2.792969 6.660156 4.390625 10.601562 4.390625zm0 0" data-original="#000000" class="active-path" data-old_color="#000000" fill="#16736E"/><path d="m150.492188 150.503906c3.949218 0 7.820312-1.601562 10.601562-4.398437 2.800781-2.792969 4.398438-6.660157 4.398438-10.601563 0-3.949218-1.597657-7.820312-4.398438-10.609375-2.78125-2.789062-6.652344-4.390625-10.601562-4.390625-3.949219 0-7.820313 1.601563-10.609376 4.390625-2.789062 2.789063-4.390624 6.660157-4.390624 10.609375 0 3.949219 1.601562 7.808594 4.390624 10.601563 2.789063 2.796875 6.660157 4.398437 10.609376 4.398437zm0 0" data-original="#000000" class="active-path" data-old_color="#000000" fill="#16736E"/><path d="m196.902344 150.503906c3.949218 0 7.820312-1.601562 10.609375-4.398437 2.789062-2.792969 4.390625-6.652344 4.390625-10.601563 0-3.949218-1.601563-7.820312-4.390625-10.609375-2.789063-2.789062-6.660157-4.390625-10.609375-4.390625-3.949219 0-7.808594 1.601563-10.601563 4.390625-2.796875 2.789063-4.398437 6.660157-4.398437 10.609375 0 3.949219 1.601562 7.808594 4.398437 10.601563 2.792969 2.796875 6.652344 4.398437 10.601563 4.398437zm0 0" data-original="#000000" class="active-path" data-old_color="#000000" fill="#16736E"/><path d="m240.640625 173.703125c3.953125 0 7.820313-1.601563 10.613281-4.390625 2.785156-2.789062 4.386719-6.660156 4.386719-10.609375 0-3.9375-1.601563-7.808594-4.386719-10.601563-2.792968-2.789062-6.660156-4.390624-10.613281-4.390624-3.949219 0-7.808594 1.601562-10.609375 4.390624-2.789062 2.792969-4.390625 6.652344-4.390625 10.601563s1.601563 7.820313 4.390625 10.609375c2.800781 2.792969 6.671875 4.390625 10.609375 4.390625zm0 0" data-original="#000000" class="active-path" data-old_color="#000000" fill="#16736E"/></g> </svg>
