<?xml version="1.0"?>
<svg xmlns="http://www.w3.org/2000/svg" viewBox="0 -48 512 512" width="512px" height="512px" class="hovered-paths"><g><path d="m508.519531 166.058594-78.984375-94.667969v174.617187c3.660156.582032 7.410156.894532 11.230469.894532 39.28125 0 71.234375-31.957032 71.234375-71.234375 0-3.511719-1.230469-6.914063-3.480469-9.609375zm0 0" data-original="#000000" class="hovered-path active-path" data-old_color="#000000" fill="#16736E"/><path d="m0 175.667969c0 39.277343 31.953125 71.234375 71.234375 71.234375 3.820313 0 7.570313-.3125 11.230469-.894532v-174.617187l-78.984375 94.667969c-2.25 2.695312-3.480469 6.097656-3.480469 9.609375zm0 0" data-original="#000000" class="hovered-path active-path" data-old_color="#000000" fill="#16736E"/><path d="m256 376.453125c-4.359375 3.183594-8.945312 6.042969-13.722656 8.542969-11.726563 6.136718-24.582032 10.082031-37.746094 11.644531 13.980469 11.921875 32.058594 18.960937 51.46875 18.960937 19.414062 0 37.488281-7.039062 51.472656-18.960937-13.167968-1.5625-26.023437-5.507813-37.75-11.644531-4.773437-2.5-9.363281-5.359375-13.722656-8.542969zm0 0" data-original="#000000" class="hovered-path active-path" data-old_color="#000000" fill="#16736E"/><path d="m344.367188 0h-176.730469c-30.417969 0-55.167969 24.75-55.167969 55.171875v232.964844c0 43.707031 35.558594 79.265625 79.265625 79.265625 26.414063 0 49.855469-12.988282 64.265625-32.914063 14.414062 19.925781 37.851562 32.914063 64.269531 32.914063 43.707031 0 79.265625-35.558594 79.265625-79.265625v-233.007813c-.019531-30.398437-24.769531-55.128906-55.167968-55.128906zm-152.632813 158.535156c-3.953125 0-7.8125-1.601562-10.613281-4.390625-2.789063-2.800781-4.386719-6.660156-4.386719-10.609375 0-3.949218 1.597656-7.820312 4.386719-10.609375 2.800781-2.792969 6.660156-4.390625 10.613281-4.390625 3.949219 0 7.808594 1.597656 10.609375 4.390625 2.789062 2.789063 4.390625 6.660157 4.390625 10.609375 0 3.9375-1.601563 7.808594-4.390625 10.609375-2.800781 2.789063-6.660156 4.390625-10.609375 4.390625zm108.222656 98.621094-16.074219 27.835938c-6.65625 11.53125-16.820312 18.144531-27.882812 18.144531s-21.226562-6.613281-27.878906-18.144531l-16.074219-27.832032c-6.652344-11.527344-7.300781-23.636718-1.765625-33.21875 5.53125-9.578125 16.335938-15.074218 29.648438-15.074218h32.140624c13.308594 0 24.117188 5.492187 29.648438 15.074218 5.535156 9.582032 4.890625 21.6875-1.761719 33.214844zm30.914063-103.011719c-2.789063 2.789063-6.65625 4.390625-10.605469 4.390625-3.941406 0-7.8125-1.601562-10.601563-4.390625-2.800781-2.800781-4.398437-6.667969-4.398437-10.609375 0-3.949218 1.597656-7.820312 4.398437-10.609375 2.789063-2.789062 6.660157-4.390625 10.601563-4.390625 3.949219 0 7.816406 1.601563 10.605469 4.390625 2.792968 2.789063 4.394531 6.660157 4.394531 10.609375 0 3.941406-1.601563 7.808594-4.394531 10.609375zm0 0" data-original="#000000" class="hovered-path active-path" data-old_color="#000000" fill="#16736E"/></g> </svg>
