<?xml version="1.0"?>
<svg xmlns="http://www.w3.org/2000/svg" viewBox="0 0 512.0007 512" width="512px" height="512px" class=""><g><path d="m505.320312 150.085938-207.582031-138.382813c-23.402343-15.601563-60.074219-15.601563-83.480469 0l-207.578124 138.382813c-6.890626 4.59375-8.753907 13.90625-4.160157 20.800781 4.597657 6.890625 13.910157 8.757812 20.800781 4.160156l8.8125-5.875v287.648437c0 30.417969 24.75 55.167969 55.167969 55.167969h89.433594v-127.464843c0-43.710938 35.558594-79.269532 79.265625-79.269532s79.265625 35.558594 79.265625 79.269532v127.464843h89.433594c30.417969 0 55.167969-24.75 55.167969-55.167969v-287.648437l8.8125 5.875c2.558593 1.707031 5.445312 2.523437 8.308593 2.523437 4.84375 0 9.601563-2.347656 12.492188-6.683593 4.59375-6.890625 2.730469-16.203125-4.160157-20.800781zm-126.195312 86.265624c0 27.957032-22.746094 50.703126-50.703125 50.703126-13.542969 0-26.277344-5.273438-35.851563-14.851563-5.929687-5.925781-10.207031-13.0625-12.609374-20.851563h-47.945313c-6.410156 20.660157-25.699219 35.703126-48.4375 35.703126-27.957031 0-50.703125-22.746094-50.703125-50.703126 0-10.257812 3.171875-20.222656 8.84375-28.5625-5.671875-8.339843-8.84375-18.304687-8.84375-28.5625 0-27.960937 22.746094-50.703124 50.703125-50.703124 13.542969 0 26.277344 5.273437 35.855469 14.847656 5.925781 5.929687 10.207031 13.0625 12.605468 20.855468h47.945313c6.410156-20.65625 25.703125-35.703124 48.4375-35.703124 27.960937 0 50.707031 22.746093 50.707031 50.703124 0 10.257813-3.171875 20.222657-8.847656 28.5625 5.675781 8.339844 8.84375 18.304688 8.84375 28.5625zm0 0" data-original="#000000" class="active-path" data-old_color="#000000" fill="#FFFFFF"/></g> </svg>
