<svg height="512" viewBox="0 0 512 512" width="512" xmlns="http://www.w3.org/2000/svg"><g id="flat"><path d="m119.966 355.341-24 32-45.966 10.978a13.019 13.019 0 0 0 -9.326 8.546 13.018 13.018 0 0 0 12.355 17.135h28.971a79.59 79.59 0 0 0 56.279-23.311l.688-.689 9.952-9.918-23.432-42.117z" fill="#cbcbcb"/><path d="m455.733 131.76-49.345-31.4a79.053 79.053 0 0 0 -42.442-12.36 79.154 79.154 0 0 0 -12.937 1.069 47.984 47.984 0 0 0 -66.809 67.231l-1.235 3.7h-52.965a125.253 125.253 0 0 0 -104.214 55.774l-1.008 1.512a129.428 129.428 0 0 0 -8.256 129.82l30.159 60.318a29.989 29.989 0 0 0 26.826 16.576h133.459l-8-32 16-16h32l16 48h48v-13.909a14 14 0 0 0 -9.573-13.282l-14.427-4.809-8-40 8.936-31.274a126.025 126.025 0 0 0 3.875-50.243l-1.286-10.283a36 36 0 0 1 23.081-38.173l21.721-8.146a77.271 77.271 0 0 0 27.507-17.717 41.529 41.529 0 0 0 12.166-29.364 41.533 41.533 0 0 0 -19.233-35.04z" fill="#eaeae8"/><circle cx="323" cy="128" fill="#8f6934" r="24"/><path d="m298.966 424v-11.412a12.6 12.6 0 0 0 -12.588-12.588h-35.412a8 8 0 0 1 -5.979-13.315l31.17-35.066a44.408 44.408 0 0 0 -64.592-60.9l-10.942 10.942a8 8 0 0 1 -11.313-11.314l10.941-10.947a60.408 60.408 0 0 1 87.864 82.848l-19.334 21.752h17.6a28.62 28.62 0 0 1 28.588 28.588v11.412z" fill="#cbcbcb"/><circle cx="394.966" cy="144" fill="#a8a8a8" r="12"/></g></svg>